<?xml version="1.0" standalone="no"?>
<!DOCTYPE svg PUBLIC "-//W3C//DTD SVG 20010904//EN"
 "http://www.w3.org/TR/2001/REC-SVG-20010904/DTD/svg10.dtd">
<svg version="1.0" xmlns="http://www.w3.org/2000/svg"
 width="48.000000pt" height="48.000000pt" viewBox="0 0 48.000000 48.000000"
 preserveAspectRatio="xMidYMid meet">

<g transform="translate(0.000000,48.000000) scale(0.100000,-0.100000)"
fill="#000000" stroke="none">
<path d="M180 471 c-112 -36 -174 -119 -174 -231 0 -137 96 -234 234 -234 138
0 234 97 234 234 0 95 -44 169 -128 212 -43 22 -128 32 -166 19z m131 -47 c45
-23 69 -83 69 -173 0 -127 -48 -191 -143 -191 -48 0 -109 33 -115 63 -5 27 25
31 54 8 56 -44 144 -13 144 51 l0 29 -26 -20 c-51 -40 -129 -22 -165 36 -17
27 -20 45 -17 90 4 49 10 61 41 90 30 27 45 33 82 33 25 0 60 -7 76 -16z"/>
<path d="M181 364 c-12 -15 -21 -41 -21 -59 0 -50 33 -85 81 -85 54 0 79 27
79 85 0 58 -25 85 -79 85 -31 0 -44 -6 -60 -26z"/>
</g>
</svg>
