<?xml version="1.0" standalone="no"?>
<!DOCTYPE svg PUBLIC "-//W3C//DTD SVG 20010904//EN"
 "http://www.w3.org/TR/2001/REC-SVG-20010904/DTD/svg10.dtd">
<svg version="1.0" xmlns="http://www.w3.org/2000/svg"
 width="2016.000000pt" height="1286.000000pt" viewBox="0 0 2016.000000 1286.000000"
 preserveAspectRatio="xMidYMid meet">

<g transform="translate(0.000000,1286.000000) scale(0.100000,-0.100000)"
fill="#000000" stroke="none">
<path d="M971 12834 c-475 -80 -849 -450 -948 -939 -17 -86 -18 -218 -18
-2750 0 -2532 1 -2664 18 -2750 100 -494 475 -861 962 -940 136 -22 4205 -22
4342 0 486 79 860 445 960 940 17 85 18 193 18 2005 0 1812 -1 1920 -18 2005
-96 472 -437 823 -907 930 -112 26 -772 34 -822 11 -68 -33 -62 126 -68 -1881
l-5 -1820 -32 -68 c-42 -89 -121 -168 -210 -210 l-68 -32 -995 -3 c-749 -2
-1006 0 -1040 9 -123 33 -228 121 -283 236 l-32 68 -5 2565 c-4 2058 -8 2569
-18 2587 -29 51 -45 53 -409 52 -240 -1 -362 -5 -422 -15z"/>
<path d="M7925 11345 c-506 -74 -904 -469 -980 -972 -22 -147 -22 -3799 0
-3946 75 -500 469 -893 974 -973 75 -12 169 -14 428 -12 l333 3 27 28 28 27 5
1818 c5 1713 6 1820 23 1862 46 116 125 201 235 253 l67 32 1015 0 1015 0 67
-32 c110 -52 189 -137 235 -253 17 -42 18 -149 23 -1862 l5 -1818 28 -27 27
-28 333 -3 c259 -2 353 0 428 12 436 69 789 367 929 784 62 186 60 104 60
2162 0 2058 2 1976 -60 2162 -144 431 -518 734 -970 788 -137 16 -4161 11
-4275 -5z"/>
<path d="M14273 11349 c-306 -36 -565 -268 -649 -584 -17 -64 -19 -115 -19
-596 0 -415 3 -531 13 -550 31 -58 -99 -54 1877 -59 l1820 -5 76 -22 c395
-112 665 -413 725 -806 22 -139 14 -418 -15 -532 -101 -407 -440 -702 -851
-745 -67 -6 -702 -10 -1842 -10 l-1740 0 -28 -28 c-19 -19 -31 -44 -35 -74 -4
-24 -5 -253 -3 -509 4 -433 6 -469 26 -540 80 -293 303 -503 594 -563 59 -12
139 -16 343 -16 l265 0 0 -2391 c0 -2378 0 -2391 21 -2492 41 -203 131 -370
278 -518 101 -100 194 -163 322 -218 599 -255 1280 120 1394 769 8 47 15 106
15 133 l0 47 463 0 c431 0 469 1 542 20 203 52 361 207 420 415 23 79 23 221
0 300 -54 189 -191 335 -376 403 l-74 27 -487 3 -488 3 0 114 0 114 338 3
c316 3 341 5 403 26 165 55 311 199 369 365 31 87 38 240 15 327 -57 219 -232
389 -450 435 -53 11 -145 15 -372 15 l-303 0 0 1049 0 1049 368 5 c450 6 614
27 902 114 889 268 1593 951 1880 1823 96 291 130 491 137 815 6 265 -7 422
-52 638 -167 803 -677 1495 -1401 1900 -363 203 -765 319 -1202 347 -181 12
-3118 11 -3219 -1z"/>
<path d="M79 4847 c-19 -12 -43 -40 -54 -62 -19 -39 -20 -60 -20 -715 0 -371
3 -691 8 -711 15 -73 106 -129 184 -114 46 8 97 56 111 103 7 24 12 112 12
225 l0 187 126 122 c69 68 130 124 134 126 9 3 30 -27 298 -443 85 -132 164
-251 176 -263 34 -39 77 -55 141 -56 69 -1 104 16 136 67 24 39 20 98 -12 164
-12 24 -131 201 -266 394 -134 193 -243 354 -241 359 2 5 94 94 205 199 111
105 211 207 223 226 27 44 30 114 6 150 -39 60 -139 84 -205 50 -16 -8 -184
-175 -372 -371 l-344 -357 -5 319 c-5 310 -6 320 -28 355 -42 69 -146 91 -213
46z"/>
<path d="M8559 4847 c-19 -12 -43 -40 -54 -62 -19 -39 -20 -60 -20 -730 l0
-690 23 -43 c65 -121 245 -98 281 36 8 29 11 245 9 724 l-3 683 -23 36 c-42
69 -146 91 -213 46z"/>
<path d="M13330 4852 c-23 -11 -43 -33 -58 -62 l-22 -45 2 -702 c3 -691 3
-702 24 -729 38 -51 71 -69 129 -69 58 0 91 18 129 69 21 27 21 38 24 729 l2
702 -22 45 c-27 52 -73 80 -133 80 -22 0 -56 -8 -75 -18z"/>
<path d="M3018 4840 c-63 -11 -103 -41 -123 -93 -14 -37 -15 -115 -13 -707 3
-631 4 -667 22 -696 10 -17 33 -40 50 -50 29 -18 62 -19 526 -22 335 -2 507 0
532 8 51 15 78 52 78 107 0 24 -6 56 -14 72 -29 55 -36 56 -473 59 l-403 3 0
224 0 225 343 1 c369 1 406 5 440 51 25 33 26 98 3 134 -34 51 -56 54 -436 54
l-350 0 0 195 0 195 373 1 c254 0 384 4 411 12 52 16 81 56 81 112 0 59 -29
97 -86 112 -51 13 -883 16 -961 3z"/>
<path d="M5732 4841 c-53 -9 -92 -37 -115 -82 -16 -32 -17 -81 -15 -709 3
-767 -1 -724 85 -762 43 -19 61 -20 381 -15 276 3 348 7 397 21 214 60 375
224 438 446 45 161 49 448 8 605 -67 256 -241 434 -471 480 -84 17 -633 30
-708 16z m598 -267 c82 -19 139 -52 183 -107 78 -96 107 -204 107 -402 0 -213
-39 -342 -132 -441 -28 -30 -71 -62 -101 -75 -48 -22 -68 -24 -264 -27 l-213
-4 0 534 c0 294 3 538 8 543 12 12 341 -4 412 -21z"/>
<path d="M10539 4840 c-61 -11 -93 -33 -116 -78 -17 -35 -18 -77 -18 -722 0
-667 1 -686 20 -719 33 -56 68 -76 135 -76 67 0 102 20 135 76 19 32 20 55 23
327 l3 292 98 0 c110 0 147 -9 209 -53 59 -43 102 -101 252 -347 72 -118 146
-229 165 -247 105 -99 280 -37 263 94 -13 92 -155 339 -267 464 -28 31 -73 71
-101 89 -27 18 -50 35 -50 39 0 4 23 13 50 19 28 7 78 25 112 42 160 79 230
191 230 369 0 215 -124 370 -337 420 -60 15 -737 24 -806 11z m626 -241 c132
-20 195 -88 195 -211 0 -169 -102 -218 -456 -218 l-184 0 0 220 0 220 185 0
c101 0 218 -5 260 -11z"/>
</g>
</svg>
